<svg width="1035px" height="666px" viewBox="0 0 1035 666" xmlns="http://www.w3.org/2000/svg" xmlns:xlink="http://www.w3.org/1999/xlink"><g transform="matrix(1, 0, 0, 1, 0, 0)" clip-path="url(#mainClip28406)"><g transform="matrix(1, 0, 0, 1, 394.384, 446.03200000000004)"><g transform="matrix(1, 0, 0, 1, 226.27564898780815, -378.0519060880435)"><path d="M 0,0 L 5.9814740023873005,0.4711356054946968 M 12.262021704893964,0.9658279912641283 L 18.243495707281266,1.436963596758825 M 24.52404340978793,1.9316559825282567 L 30.50551741217523,2.4027915880229536 M 36.7860651146819,2.897483973792385 L 41.46918497439722,3.266353672102637 L 42.7578642842123,3.4547347540091238 M 48.99161177460855,4.365993348469834 L 54.9285141464145,5.233858676527653 M 61.16226163681075,6.145117270988363 L 67.0991640086167,7.0129825990461825 M 73.33291149901294,7.924241193506893 L 79.26981387081888,8.792106521564712 M 82.34005238931059,9.240918611135257 M 85.46542933181233,9.91446501078719 L 91.33076998597696,11.178497846833649 M 97.48937767284981,12.50573232468243 L 103.35471832701444,13.76976516072889 M 109.5133260138873,15.096999638577671 L 115.37866666805192,16.361032474624132 M 121.53727435492478,17.688266952472915 L 122.71827409598531,17.942782851903736 L 127.32511197227464,19.26157738369432 M 133.38182468456353,20.995426027837805 L 139.15012250579105,22.6467104508316 M 145.20683521807993,24.380559094975084 L 150.97513303930745,26.031843517968877 M 157.03184575159634,27.765692162112362 L 162.7095219456667,29.391034429213946" fill="none" stroke="black" stroke-width="2" stroke-linecap="butt" stroke-linejoin="miter" stroke-miterlimit="10" transform="matrix(1, 0, 0, 1, 1, 1)"/><path d="M 0,1.5 A 1.5,1.5 0 0,1 1.4999999999999998,0 L 1.5,0 A 1.5,1.5 0 0,1 3,1.4999999999999996 L 3,1.5 A 1.5,1.5 0 0,1 1.5,3 L 1.5,3 A 1.5,1.5 0 0,1 0,1.5000000000000002 z" fill="transparent" stroke="none" transform="matrix(1, 0, 0, 1, 81.84005238931059, 8.740918611135271)"/><path d="M 0,1.5 A 1.5,1.5 0 0,1 1.4999999999999998,0 L 1.5,0 A 1.5,1.5 0 0,1 3,1.4999999999999996 L 3,1.5 A 1.5,1.5 0 0,1 1.5,3 L 1.5,3 A 1.5,1.5 0 0,1 0,1.5000000000000002 z" fill="none" stroke="transparent" stroke-width="2" stroke-linecap="butt" stroke-linejoin="miter" stroke-miterlimit="10" transform="matrix(1, 0, 0, 1, 81.84005238931059, 8.740918611135271)"/><path d="M 0,0 L 8,4.62 L 0,9.24 z" fill="white" stroke="none" transform="matrix(1.903717817431543, 0.6130729741178308, -0.6130729741178308, 1.903717817431543, 150.360317637923, 16.384737832678674)"/><path d="M 0,0 L 8,4.62 L 0,9.24 z" fill="none" stroke="black" stroke-width="1" stroke-linecap="butt" stroke-linejoin="miter" stroke-miterlimit="10" transform="matrix(1.903717817431543, 0.6130729741178308, -0.6130729741178308, 1.903717817431543, 150.360317637923, 16.384737832678674)"/></g><g transform="matrix(1, 0, 0, 1, 365.05107175983244, -263.9668414936619)"><path d="M 26.13684354676826,0 C 23.009513164694624,37.008317097875846 14.425225637149822,71.84552279218403 0,106.06990876261295" fill="none" stroke="black" stroke-width="2" stroke-linecap="butt" stroke-linejoin="miter" stroke-miterlimit="10" transform="matrix(1, 0, 0, 1, 55.19486750596229, 1)"/><path d="M 0,0 L 8,4.62 L 0,9.24 z" fill="#000000" stroke="none" transform="matrix(-0.7767981312552221, 1.8429825455707374, -1.8429825455707374, -0.7767981312552221, 70.31223098216849, 94.9933644916608)"/><path d="M 0,0 L 8,4.62 L 0,9.24 z" fill="none" stroke="#000000" stroke-width="1" stroke-linecap="butt" stroke-linejoin="miter" stroke-miterlimit="10" transform="matrix(-0.7767981312552221, 1.8429825455707374, -1.8429825455707374, -0.7767981312552221, 70.31223098216849, 94.9933644916608)"/><g transform="matrix(1, 0, 0, 1, 0, 35.07892855409909)"><g transform="matrix(1, 0, 0, 1, 0, 0)"><g transform="matrix(1, 0, 0, 1, 0, 0)"><path d="M 0,4 A 4,4 0 0,1 3.999999999999999,0 L 136,0 A 4,4 0 0,1 140,3.999999999999999 L 140,36 A 4,4 0 0,1 136,40 L 4,40 A 4,4 0 0,1 0,36 z" fill="white" stroke="none" transform="matrix(1, 0, 0, 1, 1, 1)"/><path d="M 0,4 A 4,4 0 0,1 3.999999999999999,0 L 136,0 A 4,4 0 0,1 140,3.999999999999999 L 140,36 A 4,4 0 0,1 136,40 L 4,40 A 4,4 0 0,1 0,36 z" fill="none" stroke="#373f47" stroke-width="2" stroke-linecap="butt" stroke-linejoin="miter" stroke-miterlimit="10" transform="matrix(1, 0, 0, 1, 1, 1)"/><text x="62.5" y="12.557989883422852" style="font: 14px Lato" text-anchor="middle" fill="black" stroke="none" transform="matrix(1, 0, 0, 1, 9.300000000000008, 6.011202697753906)">providesInteractio...</text><g transform="matrix(1, 0, 0, 1, 0, 0)" clip-path="url(#CLIP28407)"><path d="M 0,0 L 139,0 L 139,9 A 5,5 0 0,1 134,14 L 5,14 A 5,5 0 0,1 0,9 z" fill="#aaccff" stroke="none" transform="matrix(1, 0, 0, 1, 1.5000000000000113, 26.499999999999996)"/><path d="M 0,0 L 139,0 L 139,9 A 5,5 0 0,1 134,14 L 5,14 A 5,5 0 0,1 0,9 z" fill="none" stroke="#373f47" stroke-width="1" stroke-linecap="butt" stroke-linejoin="miter" stroke-miterlimit="10" transform="matrix(1, 0, 0, 1, 1.5000000000000113, 26.499999999999996)"/></g><g transform="matrix(1, 0, 0, 1, 0, 0)" clip-path="url(#CLIP28408)"><text x="15" y="8.969997024536134" style="font: 10px Lato" text-anchor="middle" fill="black" stroke="none" transform="matrix(1, 0, 0, 1, 56.000000000000014, 28.919999999999998)">0</text></g></g></g></g></g><g transform="matrix(1, 0, 0, 1, 292.83169187548594, -48.487860691086965)"><path d="M 0,134.70040860992805 L 2.0305467535834802,129.05444723195959 M 4.162620844846135,123.1261877850927 L 6.193167598429615,117.48022640712423 M 8.32524168969227,111.55196696025735 L 10.355788443275749,105.90600558228888 M 12.487862534538403,99.977746135422 L 12.74608238042032,99.2597625311039 L 14.856846866504164,94.4669782787468 M 17.396054646954163,88.70135395455586 L 19.814347771192256,83.21028316961211 M 22.353555551642255,77.44465884542117 L 24.77184867588035,71.95358806047743 M 27.31105645633035,66.18796373628649 L 27.804905067074905,65.06661179947409 L 30.031431330330665,60.842808975446665 M 32.969220791857936,55.269713508855475 L 35.76711551712201,49.962003540673386 M 38.70490497864928,44.388908074082195 L 41.502799703913354,39.08119810590011 M 44.44058916544063,33.508102639308916 L 45.227524410192046,32.01525732058925 L 47.43533356709331,28.3108371159304 M 50.660698641358486,22.899088772029845 L 53.73247490256341,17.745042730219794 M 54.841212937370415,15.884722708910774 M 57.07877306057026,12.408219027086654 L 60.32605467482364,7.362908123115324 M 63.73570036978968,2.065331673945429 L 65.06499676000004,2.930988785010413e-14" fill="none" stroke="black" stroke-width="2" stroke-linecap="butt" stroke-linejoin="miter" stroke-miterlimit="10" transform="matrix(1, 0, 0, 1, 1, 5.539233555399617)"/><path d="M 0,1.5 A 1.5,1.5 0 0,1 1.4999999999999998,0 L 1.5,0 A 1.5,1.5 0 0,1 3,1.4999999999999996 L 3,1.5 A 1.5,1.5 0 0,1 1.5,3 L 1.5,3 A 1.5,1.5 0 0,1 0,1.5000000000000002 z" fill="transparent" stroke="none" transform="matrix(1, 0, 0, 1, 27.304905067074912, 69.10584535487367)"/><path d="M 0,1.5 A 1.5,1.5 0 0,1 1.4999999999999998,0 L 1.5,0 A 1.5,1.5 0 0,1 3,1.4999999999999996 L 3,1.5 A 1.5,1.5 0 0,1 1.5,3 L 1.5,3 A 1.5,1.5 0 0,1 0,1.5000000000000002 z" fill="none" stroke="transparent" stroke-width="2" stroke-linecap="butt" stroke-linejoin="miter" stroke-miterlimit="10" transform="matrix(1, 0, 0, 1, 27.304905067074912, 69.10584535487367)"/><path d="M 0,0 L 8,4.62 L 0,9.24 z" fill="white" stroke="none" transform="matrix(1.110871118908122, -1.6631191650557748, 1.6631191650557748, 1.110871118908122, 48.938981706723325, 14.54352188901818)"/><path d="M 0,0 L 8,4.62 L 0,9.24 z" fill="none" stroke="black" stroke-width="1" stroke-linecap="butt" stroke-linejoin="miter" stroke-miterlimit="10" transform="matrix(1.110871118908122, -1.6631191650557748, 1.6631191650557748, 1.110871118908122, 48.938981706723325, 14.54352188901818)"/></g><g transform="matrix(1, 0, 0, 1, 239.97266297499263, -168.41429394228095)"><path d="M 0,0 L 5.817842436788651,1.4672114301289678 M 11.926576995416735,3.007783431764384 L 17.744419432205387,4.474994861893352 M 23.85315399083347,6.015566863528768 L 25.683558296539136,6.477179591660854 L 29.577794153072656,7.798473916314155 M 35.543743309954976,9.822689976297655 L 41.2255996498429,11.75051479532956 M 47.19154880672522,13.77473085531306 L 50.458054171009096,14.883039431958895 L 52.798866485057964,15.896017673227288 M 58.58070415273981,18.398087453344406 L 64.08721621719872,20.78101105345595 M 69.86905388488056,23.283080833573067 L 74.46799955909454,25.273258291541147 L 75.34124648228246,25.737333819891436 M 80.90444495232788,28.693822071666563 L 86.20272920951399,31.509525168595257 M 91.76592767955941,34.46601342037038 L 97.06421193674552,37.281716517299074 M 97.85790639648016,37.70351494105463" fill="none" stroke="black" stroke-width="2" stroke-linecap="butt" stroke-linejoin="miter" stroke-miterlimit="10" transform="matrix(1, 0, 0, 1, 1, 1)"/><path d="M 0,1.5 A 1.5,1.5 0 0,1 1.4999999999999998,0 L 1.5,0 A 1.5,1.5 0 0,1 3,1.4999999999999996 L 3,1.5 A 1.5,1.5 0 0,1 1.5,3 L 1.5,3 A 1.5,1.5 0 0,1 0,1.5000000000000002 z" fill="transparent" stroke="none" transform="matrix(1, 0, 0, 1, 49.95805417100908, 14.383039431958906)"/><path d="M 0,1.5 A 1.5,1.5 0 0,1 1.4999999999999998,0 L 1.5,0 A 1.5,1.5 0 0,1 3,1.4999999999999996 L 3,1.5 A 1.5,1.5 0 0,1 1.5,3 L 1.5,3 A 1.5,1.5 0 0,1 0,1.5000000000000002 z" fill="none" stroke="transparent" stroke-width="2" stroke-linecap="butt" stroke-linejoin="miter" stroke-miterlimit="10" transform="matrix(1, 0, 0, 1, 49.95805417100908, 14.383039431958906)"/><path d="M 0,0 L 8,4.62 L 0,9.24 z" fill="white" stroke="none" transform="matrix(1.7282901731854525, 1.006485507730041, -1.006485507730041, 1.7282901731854525, 88.8174029701166, 22.1636875252325)"/><path d="M 0,0 L 8,4.62 L 0,9.24 z" fill="none" stroke="black" stroke-width="1" stroke-linecap="butt" stroke-linejoin="miter" stroke-miterlimit="10" transform="matrix(1.7282901731854525, 1.006485507730041, -1.006485507730041, 1.7282901731854525, 88.8174029701166, 22.1636875252325)"/></g><g transform="matrix(1, 0, 0, 1, 45.8647481169005, -208.26834476644302)"><path d="M 0,2.916118340678338 L 5.94694531383307,2.119976748824926 M 12.191237893357794,1.2840280773788433 L 16.728880652915034,0.6765555113451855 L 18.14956975206357,0.6184850855444555 M 24.44431346959222,0.36118850446810424 L 30.439307486286175,0.11614414153824595 M 33.28076617266808,-2.1038726316646716e-14 M 36.7319636173651,0.1853043853946162 L 42.72333352884835,0.5069976924017996 M 49.01427193590576,0.8447756647593421 L 49.85892312677397,0.8901273353909895 L 54.958700430601084,1.6366859335558233 M 61.19226139432358,2.5492196104988003 L 66.66661808274756,3.3506130462664885" fill="none" stroke="black" stroke-width="2" stroke-linecap="butt" stroke-linejoin="miter" stroke-miterlimit="10" transform="matrix(1, 0, 0, 1, 1, 11.868799997600483)"/><path d="M 0,1.5 A 1.5,1.5 0 0,1 1.4999999999999998,0 L 1.5,0 A 1.5,1.5 0 0,1 3,1.4999999999999996 L 3,1.5 A 1.5,1.5 0 0,1 1.5,3 L 1.5,3 A 1.5,1.5 0 0,1 0,1.5000000000000002 z" fill="transparent" stroke="none" transform="matrix(1, 0, 0, 1, 32.78076617266808, 10.368799997600483)"/><path d="M 0,1.5 A 1.5,1.5 0 0,1 1.4999999999999998,0 L 1.5,0 A 1.5,1.5 0 0,1 3,1.4999999999999996 L 3,1.5 A 1.5,1.5 0 0,1 1.5,3 L 1.5,3 A 1.5,1.5 0 0,1 0,1.5000000000000002 z" fill="none" stroke="transparent" stroke-width="2" stroke-linecap="butt" stroke-linejoin="miter" stroke-miterlimit="10" transform="matrix(1, 0, 0, 1, 32.78076617266808, 10.368799997600483)"/><path d="M 0,0 L 8,4.62 L 0,9.24 z" fill="white" stroke="none" transform="matrix(1.9644502707800588, 0.37541328377156985, -0.37541328377156985, 1.9644502707800588, 52.70320015214172, 2.9526398808047585)"/><path d="M 0,0 L 8,4.62 L 0,9.24 z" fill="none" stroke="black" stroke-width="1" stroke-linecap="butt" stroke-linejoin="miter" stroke-miterlimit="10" transform="matrix(1.9644502707800588, 0.37541328377156985, -0.37541328377156985, 1.9644502707800588, 52.70320015214172, 2.9526398808047585)"/></g><g transform="matrix(1, 0, 0, 1, -103.62004163653283, -126.28317764106481)"><path d="M 48.28108097601648,0 L 45.1371527516929,5.1103537372966255 M 41.836028116153145,10.476225161458082 L 38.692099891829564,15.586578898754707 M 38.150372470986106,16.467139316223857 M 35.00472373062958,20.69054810741638 L 31.420718569667915,25.502502700531338 M 27.65751315065817,30.555055023302046 L 26.806464878511616,31.697688880731906 L 23.752372773780262,35.10437193515129 M 19.546973118294716,39.79527949527674 L 15.541830589260861,44.26281050492002 M 14.129595090785436,45.838086749553426 M 11.071570282324256,48.6942045294982 L 6.686641747254236,52.7896168093949 M 2.0824667854307153,57.08979970328643 L -1.3322676295501878e-15,59.03477097871767" fill="none" stroke="black" stroke-width="2" stroke-linecap="butt" stroke-linejoin="miter" stroke-miterlimit="10" transform="matrix(1, 0, 0, 1, 6.538318057875383, 1)"/><path d="M 0,1.5 A 1.5,1.5 0 0,1 1.4999999999999998,0 L 1.5,0 A 1.5,1.5 0 0,1 3,1.4999999999999996 L 3,1.5 A 1.5,1.5 0 0,1 1.5,3 L 1.5,3 A 1.5,1.5 0 0,1 0,1.5000000000000002 z" fill="transparent" stroke="none" transform="matrix(1, 0, 0, 1, 31.844782936387002, 31.197688880731903)"/><path d="M 0,1.5 A 1.5,1.5 0 0,1 1.4999999999999998,0 L 1.5,0 A 1.5,1.5 0 0,1 3,1.4999999999999996 L 3,1.5 A 1.5,1.5 0 0,1 1.5,3 L 1.5,3 A 1.5,1.5 0 0,1 0,1.5000000000000002 z" fill="none" stroke="transparent" stroke-width="2" stroke-linecap="butt" stroke-linejoin="miter" stroke-miterlimit="10" transform="matrix(1, 0, 0, 1, 31.844782936387002, 31.197688880731903)"/><path d="M 0,0 L 8,4.62 L 0,9.24 z" fill="white" stroke="none" transform="matrix(-1.5182238898874596, 1.3019202049952951, -1.3019202049952951, -1.5182238898874596, 25.45809246899705, 55.98264360753773)"/><path d="M 0,0 L 8,4.62 L 0,9.24 z" fill="none" stroke="black" stroke-width="1" stroke-linecap="butt" stroke-linejoin="miter" stroke-miterlimit="10" transform="matrix(-1.5182238898874596, 1.3019202049952951, -1.3019202049952951, -1.5182238898874596, 25.45809246899705, 55.98264360753773)"/></g><g transform="matrix(1, 0, 0, 1, 65.76120204099018, 127.70778964548265)"><path d="M 0,2.764123898682442 L 5.983661793212366,2.3216405154344666 M 12.26650667608535,1.8570329630240927 L 18.250168469297716,1.4145495797761174 M 24.5330133521707,0.9499420273657434 L 30.516675145383065,0.5074586441177682 M 35.97768607177291,0.10362455820666017 M 36.801760563234936,0.10123734630331735 L 42.801735388348405,0.08385637956952526 M 49.101708954717544,0.06560636449904356 L 55.10168377983101,0.04822539776525146 M 61.40165734620015,0.029975382694769757 L 67.40163217131362,0.01259441596097766 M 71.74927173936327,1.4011361515464671e-14 M 73.69700222444533,0.13411183496419535 L 79.68282938652807,0.5462685838747257 M 85.96794790671494,0.9790331702307824 L 91.95377506879768,1.3911899191413126 M 98.23889358898455,1.8239545054973694 L 104.2247207510673,2.2361112544079 M 107.43650966302948,2.4572603855633384 M 110.48711954950313,2.8861138596306044 L 116.42869622598602,3.72137824739936 M 122.66735173629303,4.598405854556554 L 128.6089284127759,5.433670242325309 M 134.8475839230829,6.310697849482503 L 140.78916059956578,7.145962237251259 M 143.16115250302997,7.479415876397468" fill="none" stroke="black" stroke-width="2" stroke-linecap="butt" stroke-linejoin="miter" stroke-miterlimit="10" transform="matrix(1, 0, 0, 1, 1, 7.164138671115376)"/><path d="M 0,1.5 A 1.5,1.5 0 0,1 1.4999999999999998,0 L 1.5,0 A 1.5,1.5 0 0,1 3,1.4999999999999996 L 3,1.5 A 1.5,1.5 0 0,1 1.5,3 L 1.5,3 A 1.5,1.5 0 0,1 0,1.5000000000000002 z" fill="transparent" stroke="none" transform="matrix(1, 0, 0, 1, 71.24927173936325, 5.664138671115376)"/><path d="M 0,1.5 A 1.5,1.5 0 0,1 1.4999999999999998,0 L 1.5,0 A 1.5,1.5 0 0,1 3,1.4999999999999996 L 3,1.5 A 1.5,1.5 0 0,1 1.5,3 L 1.5,3 A 1.5,1.5 0 0,1 0,1.5000000000000002 z" fill="none" stroke="transparent" stroke-width="2" stroke-linecap="butt" stroke-linejoin="miter" stroke-miterlimit="10" transform="matrix(1, 0, 0, 1, 71.24927173936325, 5.664138671115376)"/><path d="M 0,0 L 8,4.62 L 0,9.24 z" fill="white" stroke="none" transform="matrix(1.969650629414766, 0.34709710175398445, -0.34709710175398445, 1.969650629414766, 129.02271076310785, 2.593443274707756)"/><path d="M 0,0 L 8,4.62 L 0,9.24 z" fill="none" stroke="black" stroke-width="1" stroke-linecap="butt" stroke-linejoin="miter" stroke-miterlimit="10" transform="matrix(1.969650629414766, 0.34709710175398445, -0.34709710175398445, 1.969650629414766, 129.02271076310785, 2.593443274707756)"/></g><g transform="matrix(1, 0, 0, 1, -120.85010283575623, 25.24260398836531)"><path d="M 63.78146782891945,72.38823959022866 L 59.287329990585825,68.41297543673421 M 54.568485260335514,64.23894807556505 L 50.074347422001885,60.2636839220706 M 45.51293488387644,56.22891231416779 M 45.36749844327728,56.07717141104385 L 41.2157973080301,51.74549994571002 M 36.85651111602056,47.19724490710951 L 32.70480998077338,42.86557344177568 M 28.865409840286745,38.85974077445039 M 28.392762756219387,38.275696025008585 L 24.61830212249862,33.61163696400901 M 20.655118457091813,28.714374949959456 L 16.880657823371045,24.050315888959883 M 13.73054683378354,20.15775874506496 M 13.002926184175305,19.089541893231928 L 9.625152487056281,14.130646365894123 M 6.078490105081308,8.923806062189428 L 2.7007164079622843,3.9649105348516223 M 3.552713678800501e-15,-1.4654943925052066e-14" fill="none" stroke="black" stroke-width="2" stroke-linecap="butt" stroke-linejoin="miter" stroke-miterlimit="10" transform="matrix(1, 0, 0, 1, 8.84828510381718, 5.958619081938089)"/><path d="M 0,1.5 A 1.5,1.5 0 0,1 1.4999999999999998,0 L 1.5,0 A 1.5,1.5 0 0,1 3,1.4999999999999996 L 3,1.5 A 1.5,1.5 0 0,1 1.5,3 L 1.5,3 A 1.5,1.5 0 0,1 0,1.5000000000000002 z" fill="transparent" stroke="none" transform="matrix(1, 0, 0, 1, 36.21369494410392, 43.31835985638849)"/><path d="M 0,1.5 A 1.5,1.5 0 0,1 1.4999999999999998,0 L 1.5,0 A 1.5,1.5 0 0,1 3,1.4999999999999996 L 3,1.5 A 1.5,1.5 0 0,1 1.5,3 L 1.5,3 A 1.5,1.5 0 0,1 0,1.5000000000000002 z" fill="none" stroke="transparent" stroke-width="2" stroke-linecap="butt" stroke-linejoin="miter" stroke-miterlimit="10" transform="matrix(1, 0, 0, 1, 36.21369494410392, 43.31835985638849)"/><path d="M 0,0 L 8,4.62 L 0,9.24 z" fill="white" stroke="none" transform="matrix(-1.0591440697864862, -1.6965299406247207, 1.6965299406247207, -1.0591440697864862, 10.013041371316103, 25.27236917966178)"/><path d="M 0,0 L 8,4.62 L 0,9.24 z" fill="none" stroke="black" stroke-width="1" stroke-linecap="butt" stroke-linejoin="miter" stroke-miterlimit="10" transform="matrix(-1.0591440697864862, -1.6965299406247207, 1.6965299406247207, -1.0591440697864862, 10.013041371316103, 25.27236917966178)"/></g><g transform="matrix(1, 0, 0, 1, 422.51514409383435, -45.4051754708864)"><path d="M 95.8186561305809,113.33564477089689 L 91.41479374341813,109.26059924048462 M 86.79073823689721,104.98180143355174 L 82.38687584973444,100.90675590313947 M 82.06152321007758,100.60569590092271 M 77.9026906973348,96.48194075401999 L 73.64212032422165,92.2573058472203 M 69.16852143245285,87.82143919508061 L 68.83198126921513,87.48773755500766 L 65.04629140068218,83.46207897616335 M 60.73040770594706,78.87261844865911 L 56.620042282389804,74.50170366055983 M 56.12049209019895,73.97048779592384 M 52.449350797897445,69.78044331426267 L 48.49536401377352,65.26757410377436 M 44.343677890443395,60.52906143276165 L 43.9175174552344,60.04266468644347 L 40.5339429698127,55.89423571219046 M 36.55201816710811,51.012199777705135 L 32.75970883119897,46.36264174486197 M 32.213519146526856,45.69298628933872 M 28.928165185051444,41.36229645414615 L 25.301844158591138,36.582150450826596 M 21.494207080807815,31.56299714734107 L 20.9989589462817,30.91017066738177 L 18.01400131072033,26.67597513382174 M 14.384052165156081,21.526851985108227 L 10.926957740809177,16.62292517680964 M 10.264298636704291,15.682935883344804 M 7.444073086985563,11.373881944223339 L 4.15831878352752,6.353541452054809 M 0.7082767648965751,1.082183935277853 L 8.659739592076221e-15,1.1102230246251565e-15" fill="none" stroke="black" stroke-width="2" stroke-linecap="butt" stroke-linejoin="miter" stroke-miterlimit="10" transform="matrix(1, 0, 0, 1, 7.147470536636817, 3.3915660323648282)"/><path d="M 0,1.5 A 1.5,1.5 0 0,1 1.4999999999999998,0 L 1.5,0 A 1.5,1.5 0 0,1 3,1.4999999999999996 L 3,1.5 A 1.5,1.5 0 0,1 1.5,3 L 1.5,3 A 1.5,1.5 0 0,1 0,1.5000000000000002 z" fill="transparent" stroke="none" transform="matrix(1, 0, 0, 1, 49.56498799187118, 61.934230718808294)"/><path d="M 0,1.5 A 1.5,1.5 0 0,1 1.4999999999999998,0 L 1.5,0 A 1.5,1.5 0 0,1 3,1.4999999999999996 L 3,1.5 A 1.5,1.5 0 0,1 1.5,3 L 1.5,3 A 1.5,1.5 0 0,1 0,1.5000000000000002 z" fill="none" stroke="transparent" stroke-width="2" stroke-linecap="butt" stroke-linejoin="miter" stroke-miterlimit="10" transform="matrix(1, 0, 0, 1, 49.56498799187118, 61.934230718808294)"/><path d="M 0,0 L 8,4.62 L 0,9.24 z" fill="white" stroke="none" transform="matrix(-1.0665419886298824, -1.691888940353183, 1.691888940353183, -1.0665419886298824, 8.396550535559111, 22.70004601283694)"/><path d="M 0,0 L 8,4.62 L 0,9.24 z" fill="none" stroke="black" stroke-width="1" stroke-linecap="butt" stroke-linejoin="miter" stroke-miterlimit="10" transform="matrix(-1.0665419886298824, -1.691888940353183, 1.691888940353183, -1.0665419886298824, 8.396550535559111, 22.70004601283694)"/></g><g transform="matrix(1, 0, 0, 1, -308.2070224597528, -189.28233843861972)"><path d="M 94.08856499999405,100.62450400636857 C 57.69134867523417,71.48406445601542 26.63410309668427,38.26940195004816 0,0" fill="none" stroke="black" stroke-width="4" stroke-linecap="butt" stroke-linejoin="miter" stroke-miterlimit="10" transform="matrix(1, 0, 0, 1, 16.95340272984312, 24.097391483507955)"/><path d="M 0,0 L 8,4.62 L 0,9.24 z" fill="#000000" stroke="none" transform="matrix(-1.1424732390797026, -1.6415708629196404, 1.6415708629196404, -1.1424732390797026, 19.080367875331856, 43.32897018287312)"/><path d="M 0,0 L 8,4.62 L 0,9.24 z" fill="none" stroke="#000000" stroke-width="1" stroke-linecap="butt" stroke-linejoin="miter" stroke-miterlimit="10" transform="matrix(-1.1424732390797026, -1.6415708629196404, 1.6415708629196404, -1.1424732390797026, 19.080367875331856, 43.32897018287312)"/><g transform="matrix(1, 0, 0, 1, 22.336517769311783, 57.833004386577876)"><g transform="matrix(1, 0, 0, 1, 0, 0)"><g transform="matrix(1, 0, 0, 1, 0, 0)"><path d="M 0,4 A 4,4 0 0,1 3.999999999999999,0 L 67,0 A 4,4 0 0,1 71,3.999999999999999 L 71,36 A 4,4 0 0,1 67,40 L 4,40 A 4,4 0 0,1 0,36 z" fill="#1e7aff" stroke="none" transform="matrix(1, 0, 0, 1, 1, 1)"/><path d="M 0,4 A 4,4 0 0,1 3.999999999999999,0 L 67,0 A 4,4 0 0,1 71,3.999999999999999 L 71,36 A 4,4 0 0,1 67,40 L 4,40 A 4,4 0 0,1 0,36 z" fill="none" stroke="#1e7aff" stroke-width="2" stroke-linecap="butt" stroke-linejoin="miter" stroke-miterlimit="10" transform="matrix(1, 0, 0, 1, 1, 1)"/><text x="31" y="12.557989883422852" style="font: 14px Lato" text-anchor="middle" fill="white" stroke="none" transform="matrix(1, 0, 0, 1, 6.2999999999999945, 6.011202697753906)">hasType</text><g transform="matrix(1, 0, 0, 1, 0, 0)" clip-path="url(#CLIP28409)"><path d="M 0,0 L 70,0 L 70,9 A 5,5 0 0,1 65,14 L 5,14 A 5,5 0 0,1 0,9 z" fill="#aaccff" stroke="none" transform="matrix(1, 0, 0, 1, 1.4999999999999971, 26.499999999999996)"/><path d="M 0,0 L 70,0 L 70,9 A 5,5 0 0,1 65,14 L 5,14 A 5,5 0 0,1 0,9 z" fill="none" stroke="#1e7aff" stroke-width="1" stroke-linecap="butt" stroke-linejoin="miter" stroke-miterlimit="10" transform="matrix(1, 0, 0, 1, 1.4999999999999971, 26.499999999999996)"/></g><g transform="matrix(1, 0, 0, 1, 0, 0)" clip-path="url(#CLIP28410)"><text x="15" y="8.969997024536134" style="font: 10px Lato" text-anchor="middle" fill="black" stroke="none" transform="matrix(1, 0, 0, 1, 21.499999999999996, 28.919999999999998)">0</text></g></g></g></g></g><g transform="matrix(1, 0, 0, 1, 386.856, -392.736)"><path d="M 64,0 C 99.3462239891708,0 128,28.653776010829212 128,64 C 128,99.3462239891708 99.3462239891708,128 64,128 C 28.653776010829212,128 0,99.3462239891708 0,64 C 0,28.653776010829212 28.653776010829212,0 64,0 z" fill="#fdc344" stroke="none" transform="matrix(1, 0, 0, 1, 1, 1)"/><path d="M 64,0 C 99.3462239891708,0 128,28.653776010829212 128,64 C 128,99.3462239891708 99.3462239891708,128 64,128 C 28.653776010829212,128 0,99.3462239891708 0,64 C 0,28.653776010829212 28.653776010829212,0 64,0 z" fill="none" stroke="#373f47" stroke-width="2" stroke-linecap="butt" stroke-linejoin="miter" stroke-miterlimit="10" transform="matrix(1, 0, 0, 1, 1, 1)"/><text x="50" y="37.88199920654297" style="font: 18px Lato" text-anchor="middle" fill="black" stroke="none" transform="matrix(1, 0, 0, 1, 15, 32.5)">Thing</text><path d="M 0,99 C 19.233073572552435,127.99494936611666 58.32961093261506,135.90851327382072 87.32456029873171,116.67543970126829 C 94.33782793162888,112.02336424273551 100.34792454146724,106.01326763289717 105,98.99999999999999 L 0,99 z" fill="#aaccff" stroke="none" transform="matrix(1, 0, 0, 1, 12.5, 1.4099964710020032)"/><path d="M 0,99 C 19.233073572552435,127.99494936611666 58.32961093261506,135.90851327382072 87.32456029873171,116.67543970126829 C 94.33782793162888,112.02336424273551 100.34792454146724,106.01326763289717 105,98.99999999999999 L 0,99 z" fill="none" stroke="#373f47" stroke-width="1" stroke-linecap="butt" stroke-linejoin="miter" stroke-miterlimit="10" transform="matrix(1, 0, 0, 1, 12.5, 1.4099964710020032)"/><g transform="matrix(1, 0, 0, 1, 0, 0)" clip-path="url(#CLIP28411)"><text x="15" y="8.969997024536134" style="font: 10px Lato" text-anchor="middle" fill="black" stroke="none" transform="matrix(1, 0, 0, 1, 50, 108)">0</text></g></g><g transform="matrix(1, 0, 0, 1, 97.34400000000005, -445.03200000000004)"><path d="M 64,0 C 99.3462239891708,0 128,28.653776010829212 128,64 C 128,99.3462239891708 99.3462239891708,128 64,128 C 28.653776010829212,128 0,99.3462239891708 0,64 C 0,28.653776010829212 28.653776010829212,0 64,0 z" fill="#AACCFF" stroke="none" transform="matrix(1, 0, 0, 1, 1, 1)"/><path d="M 64,0 C 99.3462239891708,0 128,28.653776010829212 128,64 C 128,99.3462239891708 99.3462239891708,128 64,128 C 28.653776010829212,128 0,99.3462239891708 0,64 C 0,28.653776010829212 28.653776010829212,0 64,0 z" fill="none" stroke="#373f47" stroke-width="2" stroke-linecap="butt" stroke-linejoin="miter" stroke-miterlimit="10" transform="matrix(1, 0, 0, 1, 1, 1)"/><text x="50" y="37.88199920654297" style="font: 18px Lato" text-anchor="middle" fill="black" stroke="none" transform="matrix(1, 0, 0, 1, 15, 32.5)">Vehicle</text><path d="M 0,99 C 19.233073572552435,127.99494936611666 58.32961093261506,135.90851327382072 87.32456029873171,116.67543970126829 C 94.33782793162888,112.02336424273551 100.34792454146724,106.01326763289717 105,98.99999999999999 L 0,99 z" fill="#aaccff" stroke="none" transform="matrix(1, 0, 0, 1, 12.5, 1.4099964710020032)"/><path d="M 0,99 C 19.233073572552435,127.99494936611666 58.32961093261506,135.90851327382072 87.32456029873171,116.67543970126829 C 94.33782793162888,112.02336424273551 100.34792454146724,106.01326763289717 105,98.99999999999999 L 0,99 z" fill="none" stroke="#373f47" stroke-width="1" stroke-linecap="butt" stroke-linejoin="miter" stroke-miterlimit="10" transform="matrix(1, 0, 0, 1, 12.5, 1.4099964710020032)"/><g transform="matrix(1, 0, 0, 1, 0, 0)" clip-path="url(#CLIP28412)"><text x="15" y="8.969997024536134" style="font: 10px Lato" text-anchor="middle" fill="black" stroke="none" transform="matrix(1, 0, 0, 1, 50, 108)">0</text></g></g><g transform="matrix(1, 0, 0, 1, 330, -162)"><path d="M 64,0 C 99.3462239891708,0 128,28.653776010829212 128,64 C 128,99.3462239891708 99.3462239891708,128 64,128 C 28.653776010829212,128 0,99.3462239891708 0,64 C 0,28.653776010829212 28.653776010829212,0 64,0 z" fill="#fdc344" stroke="none" transform="matrix(1, 0, 0, 1, 1, 1)"/><path d="M 64,0 C 99.3462239891708,0 128,28.653776010829212 128,64 C 128,99.3462239891708 99.3462239891708,128 64,128 C 28.653776010829212,128 0,99.3462239891708 0,64 C 0,28.653776010829212 28.653776010829212,0 64,0 z" fill="none" stroke="#373f47" stroke-width="2" stroke-linecap="butt" stroke-linejoin="miter" stroke-miterlimit="10" transform="matrix(1, 0, 0, 1, 1, 1)"/><g transform="matrix(1, 0, 0, 1, 0, 0)"><text x="50" y="27.118000793457032" style="font: 18px Lato" text-anchor="middle" fill="black" stroke="none" transform="matrix(1, 0, 0, 1, 15, 32.5)">Interaction</text><text x="50" y="48.6459976196289" style="font: 18px Lato" text-anchor="middle" fill="black" stroke="none" transform="matrix(1, 0, 0, 1, 15, 32.5)">Affordance</text></g><path d="M 0,99 C 19.233073572552435,127.99494936611666 58.32961093261506,135.90851327382072 87.32456029873171,116.67543970126829 C 94.33782793162888,112.02336424273551 100.34792454146724,106.01326763289717 105,98.99999999999999 L 0,99 z" fill="#aaccff" stroke="none" transform="matrix(1, 0, 0, 1, 12.5, 1.4099964710020032)"/><path d="M 0,99 C 19.233073572552435,127.99494936611666 58.32961093261506,135.90851327382072 87.32456029873171,116.67543970126829 C 94.33782793162888,112.02336424273551 100.34792454146724,106.01326763289717 105,98.99999999999999 L 0,99 z" fill="none" stroke="#373f47" stroke-width="1" stroke-linecap="butt" stroke-linejoin="miter" stroke-miterlimit="10" transform="matrix(1, 0, 0, 1, 12.5, 1.4099964710020032)"/><g transform="matrix(1, 0, 0, 1, 0, 0)" clip-path="url(#CLIP28413)"><text x="15" y="8.969997024536134" style="font: 10px Lato" text-anchor="middle" fill="black" stroke="none" transform="matrix(1, 0, 0, 1, 50, 108)">0</text></g></g><g transform="matrix(1, 0, 0, 1, 508.9359999999999, 49.64799999999997)"><path d="M 64,0 C 99.3462239891708,0 128,28.653776010829212 128,64 C 128,99.3462239891708 99.3462239891708,128 64,128 C 28.653776010829212,128 0,99.3462239891708 0,64 C 0,28.653776010829212 28.653776010829212,0 64,0 z" fill="#fdc344" stroke="none" transform="matrix(1, 0, 0, 1, 1, 1)"/><path d="M 64,0 C 99.3462239891708,0 128,28.653776010829212 128,64 C 128,99.3462239891708 99.3462239891708,128 64,128 C 28.653776010829212,128 0,99.3462239891708 0,64 C 0,28.653776010829212 28.653776010829212,0 64,0 z" fill="none" stroke="#373f47" stroke-width="2" stroke-linecap="butt" stroke-linejoin="miter" stroke-miterlimit="10" transform="matrix(1, 0, 0, 1, 1, 1)"/><g transform="matrix(1, 0, 0, 1, 0, 0)"><text x="50" y="27.118000793457032" style="font: 18px Lato" text-anchor="middle" fill="black" stroke="none" transform="matrix(1, 0, 0, 1, 15, 32.5)">Event</text><text x="50" y="48.6459976196289" style="font: 18px Lato" text-anchor="middle" fill="black" stroke="none" transform="matrix(1, 0, 0, 1, 15, 32.5)">Affordance</text></g><path d="M 0,99 C 19.233073572552435,127.99494936611666 58.32961093261506,135.90851327382072 87.32456029873171,116.67543970126829 C 94.33782793162888,112.02336424273551 100.34792454146724,106.01326763289717 105,98.99999999999999 L 0,99 z" fill="#aaccff" stroke="none" transform="matrix(1, 0, 0, 1, 12.5, 1.4099964710020032)"/><path d="M 0,99 C 19.233073572552435,127.99494936611666 58.32961093261506,135.90851327382072 87.32456029873171,116.67543970126829 C 94.33782793162888,112.02336424273551 100.34792454146724,106.01326763289717 105,98.99999999999999 L 0,99 z" fill="none" stroke="#373f47" stroke-width="1" stroke-linecap="butt" stroke-linejoin="miter" stroke-miterlimit="10" transform="matrix(1, 0, 0, 1, 12.5, 1.4099964710020032)"/><g transform="matrix(1, 0, 0, 1, 0, 0)" clip-path="url(#CLIP28414)"><text x="15" y="8.969997024536134" style="font: 10px Lato" text-anchor="middle" fill="black" stroke="none" transform="matrix(1, 0, 0, 1, 50, 108)">0</text></g></g><g transform="matrix(1, 0, 0, 1, 208.93600000000004, 88.632)"><path d="M 64,0 C 99.3462239891708,0 128,28.653776010829212 128,64 C 128,99.3462239891708 99.3462239891708,128 64,128 C 28.653776010829212,128 0,99.3462239891708 0,64 C 0,28.653776010829212 28.653776010829212,0 64,0 z" fill="#fdc344" stroke="none" transform="matrix(1, 0, 0, 1, 1, 1)"/><path d="M 64,0 C 99.3462239891708,0 128,28.653776010829212 128,64 C 128,99.3462239891708 99.3462239891708,128 64,128 C 28.653776010829212,128 0,99.3462239891708 0,64 C 0,28.653776010829212 28.653776010829212,0 64,0 z" fill="none" stroke="#373f47" stroke-width="2" stroke-linecap="butt" stroke-linejoin="miter" stroke-miterlimit="10" transform="matrix(1, 0, 0, 1, 1, 1)"/><g transform="matrix(1, 0, 0, 1, 0, 0)"><text x="50" y="27.118000793457032" style="font: 18px Lato" text-anchor="middle" fill="black" stroke="none" transform="matrix(1, 0, 0, 1, 15, 32.5)">PropertyAff</text><text x="50" y="48.6459976196289" style="font: 18px Lato" text-anchor="middle" fill="black" stroke="none" transform="matrix(1, 0, 0, 1, 15, 32.5)">ordance</text></g><path d="M 0,99 C 19.233073572552435,127.99494936611666 58.32961093261506,135.90851327382072 87.32456029873171,116.67543970126829 C 94.33782793162888,112.02336424273551 100.34792454146724,106.01326763289717 105,98.99999999999999 L 0,99 z" fill="#aaccff" stroke="none" transform="matrix(1, 0, 0, 1, 12.5, 1.4099964710020032)"/><path d="M 0,99 C 19.233073572552435,127.99494936611666 58.32961093261506,135.90851327382072 87.32456029873171,116.67543970126829 C 94.33782793162888,112.02336424273551 100.34792454146724,106.01326763289717 105,98.99999999999999 L 0,99 z" fill="none" stroke="#373f47" stroke-width="1" stroke-linecap="butt" stroke-linejoin="miter" stroke-miterlimit="10" transform="matrix(1, 0, 0, 1, 12.5, 1.4099964710020032)"/><g transform="matrix(1, 0, 0, 1, 0, 0)" clip-path="url(#CLIP28415)"><text x="15" y="8.969997024536134" style="font: 10px Lato" text-anchor="middle" fill="black" stroke="none" transform="matrix(1, 0, 0, 1, 50, 108)">0</text></g></g><g transform="matrix(1, 0, 0, 1, 112.37599999999998, -245.848)"><path d="M 64,0 C 99.3462239891708,0 128,28.653776010829212 128,64 C 128,99.3462239891708 99.3462239891708,128 64,128 C 28.653776010829212,128 0,99.3462239891708 0,64 C 0,28.653776010829212 28.653776010829212,0 64,0 z" fill="#fdc344" stroke="none" transform="matrix(1, 0, 0, 1, 1, 1)"/><path d="M 64,0 C 99.3462239891708,0 128,28.653776010829212 128,64 C 128,99.3462239891708 99.3462239891708,128 64,128 C 28.653776010829212,128 0,99.3462239891708 0,64 C 0,28.653776010829212 28.653776010829212,0 64,0 z" fill="none" stroke="#373f47" stroke-width="2" stroke-linecap="butt" stroke-linejoin="miter" stroke-miterlimit="10" transform="matrix(1, 0, 0, 1, 1, 1)"/><g transform="matrix(1, 0, 0, 1, 0, 0)"><text x="50" y="27.118000793457032" style="font: 18px Lato" text-anchor="middle" fill="black" stroke="none" transform="matrix(1, 0, 0, 1, 15, 32.5)">Action</text><text x="50" y="48.6459976196289" style="font: 18px Lato" text-anchor="middle" fill="black" stroke="none" transform="matrix(1, 0, 0, 1, 15, 32.5)">Affordance</text></g><path d="M 0,99 C 19.233073572552435,127.99494936611666 58.32961093261506,135.90851327382072 87.32456029873171,116.67543970126829 C 94.33782793162888,112.02336424273551 100.34792454146724,106.01326763289717 105,98.99999999999999 L 0,99 z" fill="#aaccff" stroke="none" transform="matrix(1, 0, 0, 1, 12.5, 1.4099964710020032)"/><path d="M 0,99 C 19.233073572552435,127.99494936611666 58.32961093261506,135.90851327382072 87.32456029873171,116.67543970126829 C 94.33782793162888,112.02336424273551 100.34792454146724,106.01326763289717 105,98.99999999999999 L 0,99 z" fill="none" stroke="#373f47" stroke-width="1" stroke-linecap="butt" stroke-linejoin="miter" stroke-miterlimit="10" transform="matrix(1, 0, 0, 1, 12.5, 1.4099964710020032)"/><g transform="matrix(1, 0, 0, 1, 0, 0)" clip-path="url(#CLIP28416)"><text x="15" y="8.969997024536134" style="font: 10px Lato" text-anchor="middle" fill="black" stroke="none" transform="matrix(1, 0, 0, 1, 50, 108)">0</text></g></g><g transform="matrix(1, 0, 0, 1, -82.11999999999995, -247.04000000000002)"><path d="M 64,0 C 99.3462239891708,0 128,28.653776010829212 128,64 C 128,99.3462239891708 99.3462239891708,128 64,128 C 28.653776010829212,128 0,99.3462239891708 0,64 C 0,28.653776010829212 28.653776010829212,0 64,0 z" fill="#AACCFF" stroke="none" transform="matrix(1, 0, 0, 1, 1, 1)"/><path d="M 64,0 C 99.3462239891708,0 128,28.653776010829212 128,64 C 128,99.3462239891708 99.3462239891708,128 64,128 C 28.653776010829212,128 0,99.3462239891708 0,64 C 0,28.653776010829212 28.653776010829212,0 64,0 z" fill="none" stroke="#373f47" stroke-width="2" stroke-linecap="butt" stroke-linejoin="miter" stroke-miterlimit="10" transform="matrix(1, 0, 0, 1, 1, 1)"/><g transform="matrix(1, 0, 0, 1, 0, 0)"><text x="50" y="27.118000793457032" style="font: 18px Lato" text-anchor="middle" fill="black" stroke="none" transform="matrix(1, 0, 0, 1, 15, 32.5)">Actuable</text><text x="50" y="48.6459976196289" style="font: 18px Lato" text-anchor="middle" fill="black" stroke="none" transform="matrix(1, 0, 0, 1, 15, 32.5)">Signal</text></g><path d="M 0,99 C 19.233073572552435,127.99494936611666 58.32961093261506,135.90851327382072 87.32456029873171,116.67543970126829 C 94.33782793162888,112.02336424273551 100.34792454146724,106.01326763289717 105,98.99999999999999 L 0,99 z" fill="#aaccff" stroke="none" transform="matrix(1, 0, 0, 1, 12.5, 1.4099964710020032)"/><path d="M 0,99 C 19.233073572552435,127.99494936611666 58.32961093261506,135.90851327382072 87.32456029873171,116.67543970126829 C 94.33782793162888,112.02336424273551 100.34792454146724,106.01326763289717 105,98.99999999999999 L 0,99 z" fill="none" stroke="#373f47" stroke-width="1" stroke-linecap="butt" stroke-linejoin="miter" stroke-miterlimit="10" transform="matrix(1, 0, 0, 1, 12.5, 1.4099964710020032)"/><g transform="matrix(1, 0, 0, 1, 0, 0)" clip-path="url(#CLIP28417)"><text x="15" y="8.969997024536134" style="font: 10px Lato" text-anchor="middle" fill="black" stroke="none" transform="matrix(1, 0, 0, 1, 50, 108)">0</text></g></g><g transform="matrix(1, 0, 0, 1, -62.855999999999995, 79.68)"><path d="M 64,0 C 99.3462239891708,0 128,28.653776010829212 128,64 C 128,99.3462239891708 99.3462239891708,128 64,128 C 28.653776010829212,128 0,99.3462239891708 0,64 C 0,28.653776010829212 28.653776010829212,0 64,0 z" fill="#AACCFF" stroke="none" transform="matrix(1, 0, 0, 1, 1, 1)"/><path d="M 64,0 C 99.3462239891708,0 128,28.653776010829212 128,64 C 128,99.3462239891708 99.3462239891708,128 64,128 C 28.653776010829212,128 0,99.3462239891708 0,64 C 0,28.653776010829212 28.653776010829212,0 64,0 z" fill="none" stroke="#373f47" stroke-width="2" stroke-linecap="butt" stroke-linejoin="miter" stroke-miterlimit="10" transform="matrix(1, 0, 0, 1, 1, 1)"/><g transform="matrix(1, 0, 0, 1, 0, 0)"><text x="50" y="27.118000793457032" style="font: 18px Lato" text-anchor="middle" fill="black" stroke="none" transform="matrix(1, 0, 0, 1, 15, 32.5)">Observable</text><text x="50" y="48.6459976196289" style="font: 18px Lato" text-anchor="middle" fill="black" stroke="none" transform="matrix(1, 0, 0, 1, 15, 32.5)">Signal</text></g><path d="M 0,99 C 19.233073572552435,127.99494936611666 58.32961093261506,135.90851327382072 87.32456029873171,116.67543970126829 C 94.33782793162888,112.02336424273551 100.34792454146724,106.01326763289717 105,98.99999999999999 L 0,99 z" fill="#aaccff" stroke="none" transform="matrix(1, 0, 0, 1, 12.5, 1.4099964710020032)"/><path d="M 0,99 C 19.233073572552435,127.99494936611666 58.32961093261506,135.90851327382072 87.32456029873171,116.67543970126829 C 94.33782793162888,112.02336424273551 100.34792454146724,106.01326763289717 105,98.99999999999999 L 0,99 z" fill="none" stroke="#373f47" stroke-width="1" stroke-linecap="butt" stroke-linejoin="miter" stroke-miterlimit="10" transform="matrix(1, 0, 0, 1, 12.5, 1.4099964710020032)"/><g transform="matrix(1, 0, 0, 1, 0, 0)" clip-path="url(#CLIP28418)"><text x="15" y="8.969997024536134" style="font: 10px Lato" text-anchor="middle" fill="black" stroke="none" transform="matrix(1, 0, 0, 1, 50, 108)">0</text></g></g><g transform="matrix(1, 0, 0, 1, -211.42399999999986, -88.93600000000004)"><path d="M 64,0 C 99.3462239891708,0 128,28.653776010829212 128,64 C 128,99.3462239891708 99.3462239891708,128 64,128 C 28.653776010829212,128 0,99.3462239891708 0,64 C 0,28.653776010829212 28.653776010829212,0 64,0 z" fill="#91add9" stroke="none" transform="matrix(1, 0, 0, 1, 1, 1)"/><path d="M 64,0 C 99.3462239891708,0 128,28.653776010829212 128,64 C 128,99.3462239891708 99.3462239891708,128 64,128 C 28.653776010829212,128 0,99.3462239891708 0,64 C 0,28.653776010829212 28.653776010829212,0 64,0 z" fill="none" stroke="#91add9" stroke-width="2" stroke-linecap="butt" stroke-linejoin="miter" stroke-miterlimit="10" transform="matrix(1, 0, 0, 1, 1, 1)"/><text x="50" y="37.88199920654297" style="font: 18px Lato" text-anchor="middle" fill="white" stroke="none" transform="matrix(1, 0, 0, 1, 15, 32.5)">Signal</text><path d="M 0,99 C 19.233073572552435,127.99494936611666 58.32961093261506,135.90851327382072 87.32456029873171,116.67543970126829 C 94.33782793162888,112.02336424273551 100.34792454146724,106.01326763289717 105,98.99999999999999 L 0,99 z" fill="#aaccff" stroke="none" transform="matrix(1, 0, 0, 1, 12.5, 1.4099964710020032)"/><path d="M 0,99 C 19.233073572552435,127.99494936611666 58.32961093261506,135.90851327382072 87.32456029873171,116.67543970126829 C 94.33782793162888,112.02336424273551 100.34792454146724,106.01326763289717 105,98.99999999999999 L 0,99 z" fill="none" stroke="#373f47" stroke-width="1" stroke-linecap="butt" stroke-linejoin="miter" stroke-miterlimit="10" transform="matrix(1, 0, 0, 1, 12.5, 1.4099964710020032)"/><g transform="matrix(1, 0, 0, 1, 0, 0)" clip-path="url(#CLIP28419)"><text x="15" y="8.969997024536134" style="font: 10px Lato" text-anchor="middle" fill="black" stroke="none" transform="matrix(1, 0, 0, 1, 50, 108)">0</text></g></g><g transform="matrix(1, 0, 0, 1, -393.384, -283.53600000000006)"><g transform="matrix(1, 0, 0, 1, 0, 0)" filter="url(#SHADOW28420)"><filter id="SHADOW28420" x="-100%" y="-100%" width="300%" height="300%"><feGaussianBlur in="SourceAlpha" result="blur" SL="2.5"/><feFlood in="blur" result="flood" flood-color="grey"/><feComposite in="flood" in2="blur" operator="in" result="comp"/><feOffset in="comp" result="offsetBlur" dx="0" dy="2.5"/><feMerge><feMergeNode in="offsetBlur"/><feMergeNode in="SourceGraphic"/></feMerge></filter><path d="M 64,0 C 99.3462239891708,0 128,28.653776010829212 128,64 C 128,99.3462239891708 99.3462239891708,128 64,128 C 28.653776010829212,128 0,99.3462239891708 0,64 C 0,28.653776010829212 28.653776010829212,0 64,0 z" fill="#91add9" stroke="none" transform="matrix(1, 0, 0, 1, 1, 1)"/><path d="M 64,0 C 99.3462239891708,0 128,28.653776010829212 128,64 C 128,99.3462239891708 99.3462239891708,128 64,128 C 28.653776010829212,128 0,99.3462239891708 0,64 C 0,28.653776010829212 28.653776010829212,0 64,0 z" fill="none" stroke="#91add9" stroke-width="2" stroke-linecap="butt" stroke-linejoin="miter" stroke-miterlimit="10" transform="matrix(1, 0, 0, 1, 1, 1)"/></g><text x="50" y="37.88199920654297" style="font: 18px Lato" text-anchor="middle" fill="white" stroke="none" transform="matrix(1, 0, 0, 1, 15, 32.5)">SignalType</text><path d="M 0,99 C 19.233073572552435,127.99494936611666 58.32961093261506,135.90851327382072 87.32456029873171,116.67543970126829 C 94.33782793162888,112.02336424273551 100.34792454146724,106.01326763289717 105,98.99999999999999 L 0,99 z" fill="#aaccff" stroke="none" transform="matrix(1, 0, 0, 1, 12.5, 1.4099964710020032)"/><path d="M 0,99 C 19.233073572552435,127.99494936611666 58.32961093261506,135.90851327382072 87.32456029873171,116.67543970126829 C 94.33782793162888,112.02336424273551 100.34792454146724,106.01326763289717 105,98.99999999999999 L 0,99 z" fill="none" stroke="#373f47" stroke-width="1" stroke-linecap="butt" stroke-linejoin="miter" stroke-miterlimit="10" transform="matrix(1, 0, 0, 1, 12.5, 1.4099964710020032)"/><g transform="matrix(1, 0, 0, 1, 0, 0)" clip-path="url(#CLIP28421)"><text x="15" y="8.969997024536134" style="font: 10px Lato" text-anchor="middle" fill="black" stroke="none" transform="matrix(1, 0, 0, 1, 50, 108)">0</text></g></g></g></g><clipPath id="mainClip28406"><rect x="0" y="0" width="1035" height="666"/></clipPath><clipPath id="CLIP28407"><path d="M 1.2,1.2 L 140.8,1.2 L 140.8,42 L 1.2,42 z" transform="matrix(1, 0, 0, 1, 0, 0)"/></clipPath><clipPath id="CLIP28408"><path d="M 56.000000000000014,28.919999999999998 L 86.00000000000001,28.919999999999998 L 86.00000000000001,38.92 L 56.000000000000014,38.92 z" transform="matrix(1, 0, 0, 1, 0, 0)"/></clipPath><clipPath id="CLIP28409"><path d="M 1.2,1.2 L 71.8,1.2 L 71.8,42 L 1.2,42 z" transform="matrix(1, 0, 0, 1, 0, 0)"/></clipPath><clipPath id="CLIP28410"><path d="M 21.499999999999996,28.919999999999998 L 51.5,28.919999999999998 L 51.5,38.92 L 21.499999999999996,38.92 z" transform="matrix(1, 0, 0, 1, 0, 0)"/></clipPath><clipPath id="CLIP28411"><path d="M 50,108 L 80,108 L 80,118 L 50,118 z" transform="matrix(1, 0, 0, 1, 0, 0)"/></clipPath><clipPath id="CLIP28412"><path d="M 50,108 L 80,108 L 80,118 L 50,118 z" transform="matrix(1, 0, 0, 1, 0, 0)"/></clipPath><clipPath id="CLIP28413"><path d="M 50,108 L 80,108 L 80,118 L 50,118 z" transform="matrix(1, 0, 0, 1, 0, 0)"/></clipPath><clipPath id="CLIP28414"><path d="M 50,108 L 80,108 L 80,118 L 50,118 z" transform="matrix(1, 0, 0, 1, 0, 0)"/></clipPath><clipPath id="CLIP28415"><path d="M 50,108 L 80,108 L 80,118 L 50,118 z" transform="matrix(1, 0, 0, 1, 0, 0)"/></clipPath><clipPath id="CLIP28416"><path d="M 50,108 L 80,108 L 80,118 L 50,118 z" transform="matrix(1, 0, 0, 1, 0, 0)"/></clipPath><clipPath id="CLIP28417"><path d="M 50,108 L 80,108 L 80,118 L 50,118 z" transform="matrix(1, 0, 0, 1, 0, 0)"/></clipPath><clipPath id="CLIP28418"><path d="M 50,108 L 80,108 L 80,118 L 50,118 z" transform="matrix(1, 0, 0, 1, 0, 0)"/></clipPath><clipPath id="CLIP28419"><path d="M 50,108 L 80,108 L 80,118 L 50,118 z" transform="matrix(1, 0, 0, 1, 0, 0)"/></clipPath><clipPath id="CLIP28421"><path d="M 50,108 L 80,108 L 80,118 L 50,118 z" transform="matrix(1, 0, 0, 1, 0, 0)"/></clipPath></svg>